:SAMPLES-PER-SECOND 30
:FULLY-SPECIFIED
:DEGREES
96
root  -50.9447 38.9177 -5.96541 -173.636 -17.5798 178.609
RightUpLeg  -33.5147 -12.092 -11.7956
RightLeg  31.1181 -3.68186 -2.65891
RightFoot  -2.36133 -0.311652 3.81453
RightToes  0.000482159 0.542163 -0.142577
Spine  51.0832 -0.801624 2.81811
Spine1  2.72261 2.39447 -6.59248
HEad  -18.6631 -12.1349 9.78741
LeftShoulder1  9.5701 -18.914 -36.5465
LeftArm  -23.3705 -12.9445 -30.2639
LeftForeArm  12.9426 -58.008 -17.1125
LeftHand  -0.25398 0.0180481 5.50724
RightShoulder  6.03015 12.8874 30.8226
RightArm  -3.51354 20.4308 40.137
RightForeArm  -9.72848 59.3059 20.2885
RightHand  -0.255709 -1.72765 -7.78794
LeftUpLeg  -28.2977 34.4881 4.93812
LeftLeg  25.2115 -3.41504 -1.40576
LeftFoot  2.76724 0.702416 -5.81281
LeftToes  1.06247e-005 4.65854e-005 -8.18501e-006
97
root  -49.7715 38.4816 -6.64855 -175.912 -17.9945 177.175
RightUpLeg  -30.4602 -8.70279 -14.6284
RightLeg  30.3781 -2.30165 -1.67476
RightFoot  -3.25956 -0.432026 5.78546
RightToes  0.000482159 0.542163 -0.142577
Spine  49.3118 -0.526461 2.19531
Spine1  2.52002 2.3255 -6.72874
HEad  -14.7731 -13.7868 9.71659
LeftShoulder1  9.67346 -18.5769 -37.6361
LeftArm  -22.9533 -7.61611 -29.6828
LeftForeArm  14.1788 -60.5592 -19.0394
LeftHand  -0.25398 0.0180481 5.50724
RightShoulder  6.03116 12.7619 31.117
RightArm  -1.29217 17.7448 41.0006
RightForeArm  -10.5459 60.7898 21.7293
RightHand  -0.236562 -2.40141 -8.66126
LeftUpLeg  -24.6321 33.1292 8.26895
LeftLeg  26.1061 -2.97205 -1.23951
LeftFoot  2.67103 0.950564 -7.87119
LeftToes  1.06247e-005 4.65854e-005 -8.18501e-006
98
root  -48.497 38.1491 -7.38362 -177.721 -18.4837 176.373
RightUpLeg  -29.5079 -8.9242 -14.2434
RightLeg  33.2853 -0.350107 -0.492067
RightFoot  -3.63431 -0.518763 7.3358
RightToes  0.000482159 0.542163 -0.142577
Spine  46.9169 -0.436018 2.4944
Spine1  3.03003 2.34411 -6.44225
HEad  -11.9729 -15.1901 9.41907
LeftShoulder1  9.74247 -18.0554 -38.9675
LeftArm  -23.0392 -3.42031 -28.7938
LeftForeArm  15.5047 -62.922 -21.1416
LeftHand  -0.25398 0.0180481 5.50724
RightShoulder  6.01334 12.7534 31.0263
RightArm  0.593653 16.0654 42.169
RightForeArm  -11.9247 61.5687 22.6335
RightHand  -0.252448 -2.72584 -10.3002
LeftUpLeg  -21.0686 32.3164 11.6578
LeftLeg  25.3013 -3.84812 -1.59186
LeftFoot  3.35736 1.29511 -10.1719
LeftToes  1.06247e-005 4.65854e-005 -8.18501e-006
99
root  -47.0731 38.032 -8.16021 -179.212 -19.5184 176.211
RightUpLeg  -29.0967 -11.0537 -11.6855
RightLeg  37.1166 -0.187337 -0.429543
RightFoot  -4.866 -0.35228 5.52118
RightToes  0.000482159 0.542163 -0.142577
Spine  44.4022 -0.66558 3.78255
Spine1  4.16254 2.36792 -5.77907
HEad  -9.83994 -16.487 8.91592
LeftShoulder1  9.70028 -17.4059 -40.1153
LeftArm  -23.2606 -0.889211 -28.0294
LeftForeArm  16.151 -64.2121 -22.4886
LeftHand  -0.25398 0.0180481 5.50724
RightShoulder  6.00995 12.7678 30.972
RightArm  2.06709 15.4126 43.4049
RightForeArm  -13.8609 61.3992 22.6275
RightHand  -0.313636 -2.51642 -12.1341
LeftUpLeg  -16.8477 31.7434 15.4169
LeftLeg  21.028 -5.13982 -1.98165
LeftFoot  6.89455 2.04123 -12.8698
LeftToes  1.06247e-005 4.65854e-005 -8.18501e-006
100
root  -45.4954 38.1018 -8.97037 179.226 -21.6398 176.137
RightUpLeg  -27.5406 -13.218 -8.86487
RightLeg  39.3638 -1.49945 -1.59548
RightFoot  -7.04793 -0.0941702 1.17609
RightToes  0.000482159 0.542163 -0.142577
Spine  42.5919 -1.24707 5.25159
Spine1  5.26362 2.09878 -5.15378
HEad  -7.34348 -17.6782 8.35237
LeftShoulder1  9.51593 -16.7567 -40.6656
LeftArm  -23.3386 0.435873 -27.7905
LeftForeArm  15.9215 -64.0897 -22.3875
LeftHand  -0.25398 0.0180481 5.50724
RightShoulder  6.10554 12.7775 31.5419
RightArm  3.40111 15.2974 44.1902
RightForeArm  -16.1975 60.1528 21.593
RightHand  -0.350977 -2.37359 -13.0574
LeftUpLeg  -11.5424 27.0385 19.7642
LeftLeg  13.0735 -1.97522 -2.26882
LeftFoot  14.2777 3.38017 -15.179
LeftToes  1.06247e-005 4.65854e-005 -8.18501e-006
101
root  -43.8428 38.2547 -9.78665 177.84 -25.1301 175.539
RightUpLeg  -24.9138 -15.4534 -7.08301
RightLeg  39.907 -3.07982 -3.03818
RightFoot  -8.82857 -0.00281 -2.40323
RightToes  0.000482159 0.542163 -0.142577
Spine  41.4026 -1.88562 5.71367
Spine1  5.6024 1.32596 -4.39866
HEad  -4.39364 -18.6871 8.09119
LeftShoulder1  9.39429 -16.2995 -41.1123
LeftArm  -22.9734 1.26397 -27.6561
LeftForeArm  15.2838 -63.1849 -21.4533
LeftHand  -0.25398 0.0180481 5.50724
RightShoulder  6.25706 12.6968 32.67
RightArm  4.65612 15.1799 44.2181
RightForeArm  -18.527 58.1924 20.0315
RightHand  -0.291209 -2.87492 -12.7267
LeftUpLeg  -7.0916 16.953 22.7987
LeftLeg  4.88352 6.00694 -3.26751
LeftFoot  21.8625 4.6494 -16.0068
LeftToes  1.06247e-005 4.65854e-005 -8.18501e-006
102
root  -42.2158 38.5082 -10.5353 177.214 -29.7554 174.594
RightUpLeg  -22.1478 -18.5064 -5.98219
RightLeg  38.922 -4.51046 -4.17187
RightFoot  -9.4696 0.00118901 -3.93423
RightToes  0.000482159 0.542163 -0.142577
Spine  40.2258 -2.32945 5.26715
Spine1  5.36736 0.228955 -3.03536
HEad  -1.91075 -19.8948 8.60396
LeftShoulder1  9.53379 -16.1857 -42.0304
LeftArm  -21.676 1.54932 -27.1512
LeftForeArm  14.2167 -61.9908 -20.3545
LeftHand  -0.25398 0.0180481 5.50724
RightShoulder  6.29755 12.4415 33.5402
RightArm  5.23414 14.7409 43.6905
RightForeArm  -20.1652 56.2535 18.6295
RightHand  -0.193027 -3.67596 -11.7442
LeftUpLeg  -7.05431 15.482 21.23
LeftLeg  3.63653 4.67819 -2.98739
LeftFoot  23.1621 4.67824 -15.4511
LeftToes  1.06247e-005 4.65854e-005 -8.18501e-006
103
root  -40.6474 38.8716 -11.1911 176.998 -34.861 174.006
RightUpLeg  -19.4986 -22.3995 -4.5602
RightLeg  36.3956 -5.95202 -4.95591
RightFoot  -9.60677 0.0146555 -5.28115
RightToes  0.000482159 0.542163 -0.142577
Spine  38.8505 -2.63012 5.02186
Spine1  5.19738 -0.682648 -1.46631
HEad  -0.459986 -21.9382 9.95425
LeftShoulder1  9.84101 -16.3633 -43.0646
LeftArm  -19.1942 0.823774 -26.8211
LeftForeArm  12.551 -60.2297 -18.9296
LeftHand  -0.25398 0.0180481 5.50724
RightShoulder  6.17313 12.0749 33.6711
RightArm  4.53235 13.7779 42.7508
RightForeArm  -20.9419 54.9316 17.7478
RightHand  -0.124528 -4.29778 -10.7552
LeftUpLeg  -10.2419 18.6247 17.3787
LeftLeg  10.8538 1.08771 -1.53466
LeftFoot  17.4764 3.30717 -13.1713
LeftToes  1.06247e-005 4.65854e-005 -8.18501e-006
